<svg width="22" height="23" viewBox="0 0 22 23" fill="none" xmlns="http://www.w3.org/2000/svg">
<path d="M11.1625 8.00595C9.27551 8.00595 7.7356 9.58863 7.7356 11.528C7.7356 13.4674 9.27551 15.0501 11.1625 15.0501C13.0494 15.0501 14.5894 13.4674 14.5894 11.528C14.5894 9.58863 13.0494 8.00595 11.1625 8.00595ZM21.4405 11.528C21.4405 10.0695 21.4534 8.62422 21.3737 7.16837C21.294 5.47735 20.9187 3.97657 19.7155 2.74002C18.5098 1.50082 17.0522 1.1177 15.4069 1.03579C13.9878 0.953883 12.5816 0.967095 11.165 0.967095C9.74597 0.967095 8.33974 0.953883 6.92323 1.03579C5.27792 1.1177 3.8177 1.50346 2.61457 2.74002C1.40886 3.97922 1.03609 5.47735 0.956399 7.16837C0.876705 8.62687 0.889559 10.0722 0.889559 11.528C0.889559 12.9839 0.876705 14.4318 0.956399 15.8877C1.03609 17.5787 1.41143 19.0795 2.61457 20.316C3.82027 21.5552 5.27792 21.9383 6.92323 22.0202C8.34231 22.1021 9.74854 22.0889 11.165 22.0889C12.5841 22.0889 13.9904 22.1021 15.4069 22.0202C17.0522 21.9383 18.5124 21.5526 19.7155 20.316C20.9212 19.0768 21.294 17.5787 21.3737 15.8877C21.456 14.4318 21.4405 12.9865 21.4405 11.528ZM11.1625 16.9472C8.24462 16.9472 5.88977 14.5269 5.88977 11.528C5.88977 8.5291 8.24462 6.10884 11.1625 6.10884C14.0803 6.10884 16.4352 8.5291 16.4352 11.528C16.4352 14.5269 14.0803 16.9472 11.1625 16.9472ZM16.6511 7.15251C15.9699 7.15251 15.4197 6.58708 15.4197 5.88689C15.4197 5.18671 15.9699 4.62127 16.6511 4.62127C17.3324 4.62127 17.8826 5.18671 17.8826 5.88689C17.8828 6.05315 17.851 6.21782 17.7892 6.37147C17.7274 6.52512 17.6367 6.66472 17.5223 6.78229C17.4079 6.89985 17.2721 6.99307 17.1226 7.0566C16.9731 7.12013 16.8129 7.15272 16.6511 7.15251Z" fill="#D89B00"/>
</svg>
