<svg width="23" height="19" viewBox="0 0 23 19" fill="none" xmlns="http://www.w3.org/2000/svg">
<path d="M20.0579 3.86937C19.9724 3.53412 19.7294 3.281 19.4515 3.20337C18.9588 3.065 16.5636 2.75 11.5011 2.75C6.43863 2.75 4.04463 3.065 3.5485 3.20337C3.274 3.27987 3.031 3.533 2.94438 3.86937C2.82175 4.34637 2.50112 6.34438 2.50112 9.5C2.50112 12.6545 2.82175 14.6525 2.94438 15.1318C3.02988 15.4659 3.27288 15.719 3.54963 15.7955C4.04463 15.935 6.4375 16.25 11.5 16.25C16.5625 16.25 18.9576 15.935 19.4526 15.7966C19.7271 15.7201 19.9701 15.467 20.0568 15.1306C20.1805 14.6536 20.5 12.65 20.5 9.5C20.5 6.35 20.1805 4.3475 20.0579 3.86937ZM22.237 3.31025C22.7511 5.315 22.7511 9.5 22.7511 9.5C22.7511 9.5 22.7511 13.685 22.237 15.6898C21.9513 16.7979 21.1154 17.6698 20.0568 17.9645C18.1341 18.5 11.5 18.5 11.5 18.5C11.5 18.5 4.87038 18.5 2.94438 17.9645C1.88125 17.6653 1.0465 16.7945 0.764125 15.6898C0.25 13.685 0.25 9.5 0.25 9.5C0.25 9.5 0.25 5.315 0.764125 3.31025C1.04988 2.20213 1.88575 1.33025 2.94438 1.0355C4.8715 0.5 11.5011 0.5 11.5011 0.5C11.5011 0.5 18.1341 0.5 20.0568 1.0355C21.1188 1.33475 21.9546 2.2055 22.237 3.31025ZM9.25113 13.4375V5.5625L16.0011 9.5L9.25113 13.4375Z" fill="#D89B00"/>
</svg>
